<mxfile host="Electron" modified="2024-06-20T13:24:22.507Z" agent="Mozilla/5.0 (Windows NT 10.0; Win64; x64) AppleWebKit/537.36 (KHTML, like Gecko) draw.io/24.5.1 Chrome/124.0.6367.207 Electron/30.0.6 Safari/537.36" etag="1uXvloAUQmp565FjrYvX" version="24.5.1" type="device" pages="2">
  <diagram name="Unit state machine" id="xoaOQ7uV1z29A-R6iZR8">
    <mxGraphModel dx="1434" dy="844" grid="1" gridSize="10" guides="1" tooltips="1" connect="1" arrows="1" fold="1" page="1" pageScale="1" pageWidth="850" pageHeight="1100" math="0" shadow="0">
      <root>
        <mxCell id="0" />
        <mxCell id="1" parent="0" />
        <mxCell id="lDVew4rndN-7UFyaaQYU-3" value="UNKNOWN" style="rounded=0;whiteSpace=wrap;html=1;align=left;verticalAlign=top;dashed=1;fillColor=none;" vertex="1" parent="1">
          <mxGeometry x="80" y="40" width="640" height="80" as="geometry" />
        </mxCell>
        <mxCell id="lDVew4rndN-7UFyaaQYU-4" value="DIRTY" style="rounded=0;whiteSpace=wrap;html=1;align=left;verticalAlign=top;dashed=1;fillColor=none;" vertex="1" parent="1">
          <mxGeometry x="80" y="200" width="640" height="200" as="geometry" />
        </mxCell>
        <mxCell id="lDVew4rndN-7UFyaaQYU-5" value="CLEAN" style="rounded=0;whiteSpace=wrap;html=1;align=left;verticalAlign=top;dashed=1;fillColor=none;" vertex="1" parent="1">
          <mxGeometry x="80" y="450" width="640" height="400" as="geometry" />
        </mxCell>
        <mxCell id="lDVew4rndN-7UFyaaQYU-6" value="UNKNOWN" style="rounded=1;whiteSpace=wrap;html=1;" vertex="1" parent="1">
          <mxGeometry x="360" y="50" width="120" height="60" as="geometry" />
        </mxCell>
        <mxCell id="lDVew4rndN-7UFyaaQYU-7" value="CLOSED_DIRTY&lt;div&gt;(pressure controlled)&lt;/div&gt;" style="rounded=1;whiteSpace=wrap;html=1;" vertex="1" parent="1">
          <mxGeometry x="160" y="210" width="120" height="60" as="geometry" />
        </mxCell>
        <mxCell id="lDVew4rndN-7UFyaaQYU-8" value="OUTER_DOOR&lt;div&gt;_OPEN&lt;/div&gt;" style="rounded=1;whiteSpace=wrap;html=1;" vertex="1" parent="1">
          <mxGeometry x="360" y="210" width="120" height="60" as="geometry" />
        </mxCell>
        <mxCell id="lDVew4rndN-7UFyaaQYU-9" value="TRANSPORT_BOX&lt;div&gt;_DOCKED&lt;/div&gt;" style="rounded=1;whiteSpace=wrap;html=1;" vertex="1" parent="1">
          <mxGeometry x="560" y="210" width="120" height="60" as="geometry" />
        </mxCell>
        <mxCell id="lDVew4rndN-7UFyaaQYU-10" value="FLUSHING" style="rounded=1;whiteSpace=wrap;html=1;" vertex="1" parent="1">
          <mxGeometry x="360" y="330" width="120" height="60" as="geometry" />
        </mxCell>
        <mxCell id="lDVew4rndN-7UFyaaQYU-11" value="CLOSED_CLEAN&lt;br&gt;(pressure controlled)" style="rounded=1;whiteSpace=wrap;html=1;" vertex="1" parent="1">
          <mxGeometry x="360" y="450" width="120" height="60" as="geometry" />
        </mxCell>
        <mxCell id="lDVew4rndN-7UFyaaQYU-12" value="EQUALIZE_TO&lt;div&gt;_CLEANROOM&lt;/div&gt;" style="rounded=1;whiteSpace=wrap;html=1;" vertex="1" parent="1">
          <mxGeometry x="360" y="560" width="120" height="60" as="geometry" />
        </mxCell>
        <mxCell id="lDVew4rndN-7UFyaaQYU-13" value="CLEANROOM&lt;div&gt;_DOOR&lt;span style=&quot;background-color: initial;&quot;&gt;_OPEN&lt;/span&gt;&lt;/div&gt;" style="rounded=1;whiteSpace=wrap;html=1;" vertex="1" parent="1">
          <mxGeometry x="360" y="770" width="120" height="60" as="geometry" />
        </mxCell>
        <mxCell id="lDVew4rndN-7UFyaaQYU-14" value="" style="endArrow=classic;html=1;rounded=0;edgeStyle=orthogonalEdgeStyle;" edge="1" parent="1" source="lDVew4rndN-7UFyaaQYU-7" target="lDVew4rndN-7UFyaaQYU-10">
          <mxGeometry width="50" height="50" relative="1" as="geometry">
            <mxPoint x="210" y="310" as="sourcePoint" />
            <mxPoint x="260" y="260" as="targetPoint" />
            <Array as="points">
              <mxPoint x="220" y="300" />
              <mxPoint x="420" y="300" />
            </Array>
          </mxGeometry>
        </mxCell>
        <mxCell id="lDVew4rndN-7UFyaaQYU-45" value="Request to open&lt;div&gt;cleanroom door&lt;/div&gt;" style="edgeLabel;html=1;align=center;verticalAlign=middle;resizable=0;points=[];" vertex="1" connectable="0" parent="lDVew4rndN-7UFyaaQYU-14">
          <mxGeometry x="-0.6455" relative="1" as="geometry">
            <mxPoint x="31" as="offset" />
          </mxGeometry>
        </mxCell>
        <mxCell id="lDVew4rndN-7UFyaaQYU-15" value="" style="endArrow=classic;html=1;rounded=0;edgeStyle=orthogonalEdgeStyle;" edge="1" parent="1" source="lDVew4rndN-7UFyaaQYU-9" target="lDVew4rndN-7UFyaaQYU-10">
          <mxGeometry width="50" height="50" relative="1" as="geometry">
            <mxPoint x="270" y="280" as="sourcePoint" />
            <mxPoint x="350" y="340" as="targetPoint" />
            <Array as="points">
              <mxPoint x="620" y="300" />
              <mxPoint x="420" y="300" />
            </Array>
          </mxGeometry>
        </mxCell>
        <mxCell id="lDVew4rndN-7UFyaaQYU-44" value="Request to open&lt;div&gt;cleanroom door&lt;/div&gt;" style="edgeLabel;html=1;align=center;verticalAlign=middle;resizable=0;points=[];" vertex="1" connectable="0" parent="lDVew4rndN-7UFyaaQYU-15">
          <mxGeometry x="-0.9" y="-1" relative="1" as="geometry">
            <mxPoint x="-49" y="15" as="offset" />
          </mxGeometry>
        </mxCell>
        <mxCell id="lDVew4rndN-7UFyaaQYU-16" value="" style="endArrow=classic;html=1;rounded=0;edgeStyle=orthogonalEdgeStyle;" edge="1" parent="1" source="lDVew4rndN-7UFyaaQYU-6" target="lDVew4rndN-7UFyaaQYU-7">
          <mxGeometry width="50" height="50" relative="1" as="geometry">
            <mxPoint x="270" y="320" as="sourcePoint" />
            <mxPoint x="350" y="380" as="targetPoint" />
            <Array as="points">
              <mxPoint x="420" y="140" />
              <mxPoint x="220" y="140" />
            </Array>
          </mxGeometry>
        </mxCell>
        <mxCell id="lDVew4rndN-7UFyaaQYU-29" value="Outer- and cleanroom&amp;nbsp;&lt;div&gt;door closed?&lt;/div&gt;" style="edgeLabel;html=1;align=center;verticalAlign=middle;resizable=0;points=[];" vertex="1" connectable="0" parent="lDVew4rndN-7UFyaaQYU-16">
          <mxGeometry x="-0.16" y="1" relative="1" as="geometry">
            <mxPoint x="-104" y="29" as="offset" />
          </mxGeometry>
        </mxCell>
        <mxCell id="lDVew4rndN-7UFyaaQYU-17" value="" style="endArrow=classic;html=1;rounded=0;edgeStyle=orthogonalEdgeStyle;" edge="1" parent="1" source="lDVew4rndN-7UFyaaQYU-6" target="lDVew4rndN-7UFyaaQYU-8">
          <mxGeometry width="50" height="50" relative="1" as="geometry">
            <mxPoint x="360" y="160" as="sourcePoint" />
            <mxPoint x="260" y="260" as="targetPoint" />
          </mxGeometry>
        </mxCell>
        <mxCell id="lDVew4rndN-7UFyaaQYU-30" value="Outer door&lt;div&gt;not closed?&lt;/div&gt;" style="edgeLabel;html=1;align=center;verticalAlign=middle;resizable=0;points=[];" vertex="1" connectable="0" parent="lDVew4rndN-7UFyaaQYU-17">
          <mxGeometry x="-0.2" y="5" relative="1" as="geometry">
            <mxPoint x="-5" y="20" as="offset" />
          </mxGeometry>
        </mxCell>
        <mxCell id="lDVew4rndN-7UFyaaQYU-18" value="" style="endArrow=classic;html=1;rounded=0;edgeStyle=orthogonalEdgeStyle;" edge="1" parent="1" source="lDVew4rndN-7UFyaaQYU-6" target="lDVew4rndN-7UFyaaQYU-9">
          <mxGeometry width="50" height="50" relative="1" as="geometry">
            <mxPoint x="390" y="160" as="sourcePoint" />
            <mxPoint x="390" y="260" as="targetPoint" />
            <Array as="points">
              <mxPoint x="420" y="140" />
              <mxPoint x="620" y="140" />
            </Array>
          </mxGeometry>
        </mxCell>
        <mxCell id="lDVew4rndN-7UFyaaQYU-32" value="Transport&lt;div&gt;box docked?&lt;/div&gt;" style="edgeLabel;html=1;align=center;verticalAlign=middle;resizable=0;points=[];" vertex="1" connectable="0" parent="lDVew4rndN-7UFyaaQYU-18">
          <mxGeometry x="-0.008" y="2" relative="1" as="geometry">
            <mxPoint x="81" y="32" as="offset" />
          </mxGeometry>
        </mxCell>
        <mxCell id="lDVew4rndN-7UFyaaQYU-19" value="" style="endArrow=classic;html=1;rounded=0;" edge="1" parent="1" source="lDVew4rndN-7UFyaaQYU-10" target="lDVew4rndN-7UFyaaQYU-11">
          <mxGeometry width="50" height="50" relative="1" as="geometry">
            <mxPoint x="430" y="120" as="sourcePoint" />
            <mxPoint x="430" y="220" as="targetPoint" />
          </mxGeometry>
        </mxCell>
        <mxCell id="lDVew4rndN-7UFyaaQYU-33" value="Done" style="edgeLabel;html=1;align=center;verticalAlign=middle;resizable=0;points=[];" vertex="1" connectable="0" parent="lDVew4rndN-7UFyaaQYU-19">
          <mxGeometry x="0.1" y="2" relative="1" as="geometry">
            <mxPoint x="-2" y="-3" as="offset" />
          </mxGeometry>
        </mxCell>
        <mxCell id="lDVew4rndN-7UFyaaQYU-22" value="" style="endArrow=classic;html=1;rounded=0;" edge="1" parent="1" source="lDVew4rndN-7UFyaaQYU-11" target="lDVew4rndN-7UFyaaQYU-12">
          <mxGeometry width="50" height="50" relative="1" as="geometry">
            <mxPoint x="425" y="520" as="sourcePoint" />
            <mxPoint x="435" y="490" as="targetPoint" />
          </mxGeometry>
        </mxCell>
        <mxCell id="lDVew4rndN-7UFyaaQYU-52" value="Request to open&lt;div&gt;clean room door&lt;/div&gt;" style="edgeLabel;html=1;align=center;verticalAlign=middle;resizable=0;points=[];" vertex="1" connectable="0" parent="lDVew4rndN-7UFyaaQYU-22">
          <mxGeometry x="-0.45" y="1" relative="1" as="geometry">
            <mxPoint x="-1" y="9" as="offset" />
          </mxGeometry>
        </mxCell>
        <mxCell id="lDVew4rndN-7UFyaaQYU-23" value="" style="endArrow=classic;html=1;rounded=0;" edge="1" parent="1" source="lDVew4rndN-7UFyaaQYU-12" target="lDVew4rndN-7UFyaaQYU-36">
          <mxGeometry width="50" height="50" relative="1" as="geometry">
            <mxPoint x="430" y="610" as="sourcePoint" />
            <mxPoint x="430" y="580" as="targetPoint" />
          </mxGeometry>
        </mxCell>
        <mxCell id="lDVew4rndN-7UFyaaQYU-53" value="Pressure equalized" style="edgeLabel;html=1;align=center;verticalAlign=middle;resizable=0;points=[];" vertex="1" connectable="0" parent="lDVew4rndN-7UFyaaQYU-23">
          <mxGeometry x="-0.25" y="1" relative="1" as="geometry">
            <mxPoint as="offset" />
          </mxGeometry>
        </mxCell>
        <mxCell id="lDVew4rndN-7UFyaaQYU-26" value="" style="endArrow=classic;html=1;rounded=0;edgeStyle=elbowEdgeStyle;" edge="1" parent="1" source="lDVew4rndN-7UFyaaQYU-13" target="lDVew4rndN-7UFyaaQYU-11">
          <mxGeometry width="50" height="50" relative="1" as="geometry">
            <mxPoint x="440" y="460" as="sourcePoint" />
            <mxPoint x="490" y="410" as="targetPoint" />
            <Array as="points">
              <mxPoint x="540" y="570" />
            </Array>
          </mxGeometry>
        </mxCell>
        <mxCell id="lDVew4rndN-7UFyaaQYU-51" value="Close&lt;div&gt;cleanroon&lt;/div&gt;&lt;div&gt;door&lt;/div&gt;" style="edgeLabel;html=1;align=center;verticalAlign=middle;resizable=0;points=[];" vertex="1" connectable="0" parent="lDVew4rndN-7UFyaaQYU-26">
          <mxGeometry x="-0.4889" relative="1" as="geometry">
            <mxPoint x="-30" y="32" as="offset" />
          </mxGeometry>
        </mxCell>
        <mxCell id="lDVew4rndN-7UFyaaQYU-27" value="" style="endArrow=classic;html=1;rounded=0;edgeStyle=elbowEdgeStyle;" edge="1" parent="1" source="lDVew4rndN-7UFyaaQYU-6" target="lDVew4rndN-7UFyaaQYU-13">
          <mxGeometry width="50" height="50" relative="1" as="geometry">
            <mxPoint x="430" y="160" as="sourcePoint" />
            <mxPoint x="760" y="120" as="targetPoint" />
            <Array as="points">
              <mxPoint x="140" y="340" />
            </Array>
          </mxGeometry>
        </mxCell>
        <mxCell id="lDVew4rndN-7UFyaaQYU-28" value="Cleanroom door open?" style="edgeLabel;html=1;align=center;verticalAlign=middle;resizable=0;points=[];" vertex="1" connectable="0" parent="lDVew4rndN-7UFyaaQYU-27">
          <mxGeometry x="0.5625" y="2" relative="1" as="geometry">
            <mxPoint as="offset" />
          </mxGeometry>
        </mxCell>
        <mxCell id="lDVew4rndN-7UFyaaQYU-34" value="" style="endArrow=classic;html=1;rounded=0;entryX=0.25;entryY=1;entryDx=0;entryDy=0;exitX=0;exitY=0.5;exitDx=0;exitDy=0;edgeStyle=orthogonalEdgeStyle;" edge="1" parent="1" source="lDVew4rndN-7UFyaaQYU-10" target="lDVew4rndN-7UFyaaQYU-7">
          <mxGeometry width="50" height="50" relative="1" as="geometry">
            <mxPoint x="390" y="400" as="sourcePoint" />
            <mxPoint x="390" y="460" as="targetPoint" />
          </mxGeometry>
        </mxCell>
        <mxCell id="lDVew4rndN-7UFyaaQYU-35" value="Abort" style="edgeLabel;html=1;align=center;verticalAlign=middle;resizable=0;points=[];" vertex="1" connectable="0" parent="lDVew4rndN-7UFyaaQYU-34">
          <mxGeometry x="0.1" y="2" relative="1" as="geometry">
            <mxPoint x="61" y="-2" as="offset" />
          </mxGeometry>
        </mxCell>
        <mxCell id="lDVew4rndN-7UFyaaQYU-36" value="EQUALIZED_TO&lt;div&gt;_CLEANROOM&lt;/div&gt;&lt;div&gt;(cleanroom door may be opened)&lt;/div&gt;" style="rounded=1;whiteSpace=wrap;html=1;" vertex="1" parent="1">
          <mxGeometry x="360" y="660" width="120" height="60" as="geometry" />
        </mxCell>
        <mxCell id="lDVew4rndN-7UFyaaQYU-37" value="" style="endArrow=classic;html=1;rounded=0;" edge="1" parent="1" source="lDVew4rndN-7UFyaaQYU-36" target="lDVew4rndN-7UFyaaQYU-13">
          <mxGeometry width="50" height="50" relative="1" as="geometry">
            <mxPoint x="445" y="640" as="sourcePoint" />
            <mxPoint x="455" y="660" as="targetPoint" />
          </mxGeometry>
        </mxCell>
        <mxCell id="lDVew4rndN-7UFyaaQYU-54" value="Open cleanroom door" style="edgeLabel;html=1;align=center;verticalAlign=middle;resizable=0;points=[];" vertex="1" connectable="0" parent="lDVew4rndN-7UFyaaQYU-37">
          <mxGeometry x="-0.24" y="3" relative="1" as="geometry">
            <mxPoint as="offset" />
          </mxGeometry>
        </mxCell>
        <mxCell id="lDVew4rndN-7UFyaaQYU-38" value="" style="endArrow=classic;html=1;rounded=0;edgeStyle=elbowEdgeStyle;entryX=0;entryY=0.75;entryDx=0;entryDy=0;" edge="1" parent="1" source="lDVew4rndN-7UFyaaQYU-11" target="lDVew4rndN-7UFyaaQYU-8">
          <mxGeometry width="50" height="50" relative="1" as="geometry">
            <mxPoint x="450" y="730" as="sourcePoint" />
            <mxPoint x="450" y="490" as="targetPoint" />
            <Array as="points">
              <mxPoint x="340" y="370" />
            </Array>
          </mxGeometry>
        </mxCell>
        <mxCell id="lDVew4rndN-7UFyaaQYU-50" value="Open outer&amp;nbsp;&lt;div&gt;door&lt;/div&gt;" style="edgeLabel;html=1;align=center;verticalAlign=middle;resizable=0;points=[];" vertex="1" connectable="0" parent="lDVew4rndN-7UFyaaQYU-38">
          <mxGeometry x="-0.4113" y="-5" relative="1" as="geometry">
            <mxPoint x="-5" as="offset" />
          </mxGeometry>
        </mxCell>
        <mxCell id="lDVew4rndN-7UFyaaQYU-40" value="" style="endArrow=classic;html=1;rounded=0;entryX=0;entryY=0.25;entryDx=0;entryDy=0;exitX=1;exitY=0.25;exitDx=0;exitDy=0;" edge="1" parent="1" source="lDVew4rndN-7UFyaaQYU-8" target="lDVew4rndN-7UFyaaQYU-9">
          <mxGeometry width="50" height="50" relative="1" as="geometry">
            <mxPoint x="770" y="360" as="sourcePoint" />
            <mxPoint x="820" y="310" as="targetPoint" />
          </mxGeometry>
        </mxCell>
        <mxCell id="lDVew4rndN-7UFyaaQYU-48" value="Dock box" style="edgeLabel;html=1;align=center;verticalAlign=middle;resizable=0;points=[];" vertex="1" connectable="0" parent="lDVew4rndN-7UFyaaQYU-40">
          <mxGeometry x="-0.125" y="-2" relative="1" as="geometry">
            <mxPoint x="5" y="-7" as="offset" />
          </mxGeometry>
        </mxCell>
        <mxCell id="lDVew4rndN-7UFyaaQYU-41" value="" style="endArrow=classic;html=1;rounded=0;entryX=1;entryY=0.5;entryDx=0;entryDy=0;exitX=0;exitY=0.5;exitDx=0;exitDy=0;" edge="1" parent="1" source="lDVew4rndN-7UFyaaQYU-9" target="lDVew4rndN-7UFyaaQYU-8">
          <mxGeometry width="50" height="50" relative="1" as="geometry">
            <mxPoint x="450" y="235" as="sourcePoint" />
            <mxPoint x="490" y="235" as="targetPoint" />
          </mxGeometry>
        </mxCell>
        <mxCell id="lDVew4rndN-7UFyaaQYU-49" value="Undock box" style="edgeLabel;html=1;align=center;verticalAlign=middle;resizable=0;points=[];" vertex="1" connectable="0" parent="lDVew4rndN-7UFyaaQYU-41">
          <mxGeometry x="-0.1" y="2" relative="1" as="geometry">
            <mxPoint x="-4" y="-2" as="offset" />
          </mxGeometry>
        </mxCell>
        <mxCell id="lDVew4rndN-7UFyaaQYU-42" value="" style="endArrow=classic;html=1;rounded=0;exitX=1;exitY=0.25;exitDx=0;exitDy=0;entryX=0;entryY=0.25;entryDx=0;entryDy=0;" edge="1" parent="1" source="lDVew4rndN-7UFyaaQYU-7" target="lDVew4rndN-7UFyaaQYU-8">
          <mxGeometry width="50" height="50" relative="1" as="geometry">
            <mxPoint x="450" y="235" as="sourcePoint" />
            <mxPoint x="490" y="235" as="targetPoint" />
          </mxGeometry>
        </mxCell>
        <mxCell id="lDVew4rndN-7UFyaaQYU-46" value="Open door" style="edgeLabel;html=1;align=center;verticalAlign=middle;resizable=0;points=[];" vertex="1" connectable="0" parent="lDVew4rndN-7UFyaaQYU-42">
          <mxGeometry x="0.025" y="-3" relative="1" as="geometry">
            <mxPoint x="-1" y="-8" as="offset" />
          </mxGeometry>
        </mxCell>
        <mxCell id="lDVew4rndN-7UFyaaQYU-43" value="" style="endArrow=classic;html=1;rounded=0;exitX=0;exitY=0.5;exitDx=0;exitDy=0;entryX=1;entryY=0.5;entryDx=0;entryDy=0;" edge="1" parent="1" source="lDVew4rndN-7UFyaaQYU-8" target="lDVew4rndN-7UFyaaQYU-7">
          <mxGeometry width="50" height="50" relative="1" as="geometry">
            <mxPoint x="290" y="235" as="sourcePoint" />
            <mxPoint x="330" y="235" as="targetPoint" />
          </mxGeometry>
        </mxCell>
        <mxCell id="lDVew4rndN-7UFyaaQYU-47" value="Close door" style="edgeLabel;html=1;align=center;verticalAlign=middle;resizable=0;points=[];" vertex="1" connectable="0" parent="lDVew4rndN-7UFyaaQYU-43">
          <mxGeometry x="0.05" y="1" relative="1" as="geometry">
            <mxPoint as="offset" />
          </mxGeometry>
        </mxCell>
      </root>
    </mxGraphModel>
  </diagram>
  <diagram id="qz1rOVVWrfXHdtz9f7Np" name="EM Door state machine">
    <mxGraphModel dx="1434" dy="844" grid="1" gridSize="10" guides="1" tooltips="1" connect="1" arrows="1" fold="1" page="1" pageScale="1" pageWidth="850" pageHeight="1100" math="0" shadow="0">
      <root>
        <mxCell id="0" />
        <mxCell id="1" parent="0" />
        <mxCell id="UStSliqd21bBvvFnvlSQ-1" value="CHECK STATE" style="rounded=1;whiteSpace=wrap;html=1;" parent="1" vertex="1">
          <mxGeometry x="320" y="190" width="120" height="60" as="geometry" />
        </mxCell>
        <mxCell id="UStSliqd21bBvvFnvlSQ-3" value="&lt;h1 style=&quot;margin-top: 0px;&quot;&gt;State machine EM_Doors&lt;/h1&gt;&lt;p&gt;This state machine describes the behavor and control of the doors&lt;/p&gt;" style="text;html=1;whiteSpace=wrap;overflow=hidden;rounded=0;" parent="1" vertex="1">
          <mxGeometry x="80" y="40" width="320" height="80" as="geometry" />
        </mxCell>
        <mxCell id="UStSliqd21bBvvFnvlSQ-4" value="OPEN_SPEED&lt;div&gt;_DOOR_OUTER&lt;/div&gt;" style="rounded=1;whiteSpace=wrap;html=1;" parent="1" vertex="1">
          <mxGeometry x="160" y="800" width="120" height="60" as="geometry" />
        </mxCell>
        <mxCell id="UStSliqd21bBvvFnvlSQ-5" value="CLOSE_SPEED&lt;div&gt;_DOOR_OUTER&lt;/div&gt;" style="rounded=1;whiteSpace=wrap;html=1;" parent="1" vertex="1">
          <mxGeometry x="160" y="920" width="120" height="60" as="geometry" />
        </mxCell>
        <mxCell id="UStSliqd21bBvvFnvlSQ-6" value="RELEASE_LOCK&lt;div&gt;_CLEANROOM&lt;/div&gt;&lt;div&gt;_DOOR&lt;/div&gt;" style="rounded=1;whiteSpace=wrap;html=1;" parent="1" vertex="1">
          <mxGeometry x="320" y="800" width="120" height="60" as="geometry" />
        </mxCell>
        <mxCell id="UStSliqd21bBvvFnvlSQ-7" value="APPLY_LOCK&lt;div&gt;_CLEANROOM&lt;/div&gt;&lt;div&gt;_DOOR&lt;/div&gt;" style="rounded=1;whiteSpace=wrap;html=1;" parent="1" vertex="1">
          <mxGeometry x="320" y="990" width="120" height="60" as="geometry" />
        </mxCell>
        <mxCell id="UStSliqd21bBvvFnvlSQ-8" value="&lt;div&gt;CLEANROOM&lt;/div&gt;&lt;div&gt;_DOOR_OPENED&lt;/div&gt;" style="rounded=1;whiteSpace=wrap;html=1;" parent="1" vertex="1">
          <mxGeometry x="320" y="900" width="120" height="60" as="geometry" />
        </mxCell>
        <mxCell id="UStSliqd21bBvvFnvlSQ-9" value="IDLE" style="rounded=1;whiteSpace=wrap;html=1;" parent="1" vertex="1">
          <mxGeometry x="1160" y="210" width="120" height="60" as="geometry" />
        </mxCell>
        <mxCell id="UStSliqd21bBvvFnvlSQ-10" value="&lt;h1 style=&quot;margin-top: 0px;&quot;&gt;State machine EM_DockingInterface&lt;/h1&gt;&lt;p&gt;This state machine describes the behavor and control of the dockinginterface valves&lt;/p&gt;" style="text;html=1;whiteSpace=wrap;overflow=hidden;rounded=0;" parent="1" vertex="1">
          <mxGeometry x="920" y="40" width="320" height="80" as="geometry" />
        </mxCell>
        <mxCell id="UStSliqd21bBvvFnvlSQ-11" value="DOCKING CLOSE CLAMPS" style="rounded=1;whiteSpace=wrap;html=1;" parent="1" vertex="1">
          <mxGeometry x="1040" y="320" width="120" height="60" as="geometry" />
        </mxCell>
        <mxCell id="UStSliqd21bBvvFnvlSQ-12" value="DOCKING UNLOCK DOOR" style="rounded=1;whiteSpace=wrap;html=1;" parent="1" vertex="1">
          <mxGeometry x="1040" y="420" width="120" height="60" as="geometry" />
        </mxCell>
        <mxCell id="UStSliqd21bBvvFnvlSQ-13" value="UNDOCKING LOCK DOOR" style="rounded=1;whiteSpace=wrap;html=1;" parent="1" vertex="1">
          <mxGeometry x="1280" y="320" width="120" height="60" as="geometry" />
        </mxCell>
        <mxCell id="UStSliqd21bBvvFnvlSQ-14" value="UNDOCKING DONE" style="rounded=1;whiteSpace=wrap;html=1;" parent="1" vertex="1">
          <mxGeometry x="1280" y="520" width="120" height="60" as="geometry" />
        </mxCell>
        <mxCell id="UStSliqd21bBvvFnvlSQ-15" value="UNDOCKING OPEN CLAMPS" style="rounded=1;whiteSpace=wrap;html=1;" parent="1" vertex="1">
          <mxGeometry x="1280" y="420" width="120" height="60" as="geometry" />
        </mxCell>
        <mxCell id="wRRXuNqxhAB9UO7Eh207-1" value="DOCKING DONE" style="rounded=1;whiteSpace=wrap;html=1;" parent="1" vertex="1">
          <mxGeometry x="1040" y="520" width="120" height="60" as="geometry" />
        </mxCell>
        <mxCell id="wRRXuNqxhAB9UO7Eh207-2" value="" style="endArrow=classic;html=1;rounded=0;" parent="1" source="UStSliqd21bBvvFnvlSQ-11" target="UStSliqd21bBvvFnvlSQ-12" edge="1">
          <mxGeometry width="50" height="50" relative="1" as="geometry">
            <mxPoint x="1250" y="450" as="sourcePoint" />
            <mxPoint x="1300" y="400" as="targetPoint" />
          </mxGeometry>
        </mxCell>
        <mxCell id="wRRXuNqxhAB9UO7Eh207-3" value="" style="endArrow=classic;html=1;rounded=0;" parent="1" source="UStSliqd21bBvvFnvlSQ-12" target="wRRXuNqxhAB9UO7Eh207-1" edge="1">
          <mxGeometry width="50" height="50" relative="1" as="geometry">
            <mxPoint x="1110" y="390" as="sourcePoint" />
            <mxPoint x="1110" y="430" as="targetPoint" />
          </mxGeometry>
        </mxCell>
        <mxCell id="wRRXuNqxhAB9UO7Eh207-4" value="" style="endArrow=classic;html=1;rounded=0;" parent="1" source="UStSliqd21bBvvFnvlSQ-13" target="UStSliqd21bBvvFnvlSQ-15" edge="1">
          <mxGeometry width="50" height="50" relative="1" as="geometry">
            <mxPoint x="950" y="380" as="sourcePoint" />
            <mxPoint x="950" y="420" as="targetPoint" />
          </mxGeometry>
        </mxCell>
        <mxCell id="wRRXuNqxhAB9UO7Eh207-5" value="" style="endArrow=classic;html=1;rounded=0;" parent="1" source="UStSliqd21bBvvFnvlSQ-15" target="UStSliqd21bBvvFnvlSQ-14" edge="1">
          <mxGeometry width="50" height="50" relative="1" as="geometry">
            <mxPoint x="1350" y="390" as="sourcePoint" />
            <mxPoint x="1350" y="430" as="targetPoint" />
          </mxGeometry>
        </mxCell>
        <mxCell id="wRRXuNqxhAB9UO7Eh207-6" value="" style="endArrow=classic;html=1;rounded=0;edgeStyle=orthogonalEdgeStyle;" parent="1" source="UStSliqd21bBvvFnvlSQ-9" target="UStSliqd21bBvvFnvlSQ-11" edge="1">
          <mxGeometry width="50" height="50" relative="1" as="geometry">
            <mxPoint x="1110" y="390" as="sourcePoint" />
            <mxPoint x="1110" y="430" as="targetPoint" />
          </mxGeometry>
        </mxCell>
        <mxCell id="wRRXuNqxhAB9UO7Eh207-7" value="" style="endArrow=classic;html=1;rounded=0;edgeStyle=orthogonalEdgeStyle;" parent="1" source="UStSliqd21bBvvFnvlSQ-9" target="UStSliqd21bBvvFnvlSQ-13" edge="1">
          <mxGeometry width="50" height="50" relative="1" as="geometry">
            <mxPoint x="1230" y="280" as="sourcePoint" />
            <mxPoint x="1110" y="330" as="targetPoint" />
          </mxGeometry>
        </mxCell>
        <mxCell id="wRRXuNqxhAB9UO7Eh207-8" value="" style="endArrow=classic;html=1;rounded=0;edgeStyle=orthogonalEdgeStyle;" parent="1" source="wRRXuNqxhAB9UO7Eh207-1" target="UStSliqd21bBvvFnvlSQ-9" edge="1">
          <mxGeometry width="50" height="50" relative="1" as="geometry">
            <mxPoint x="1230" y="280" as="sourcePoint" />
            <mxPoint x="890" y="440" as="targetPoint" />
            <Array as="points">
              <mxPoint x="1100" y="620" />
              <mxPoint x="1000" y="620" />
              <mxPoint x="1000" y="240" />
            </Array>
          </mxGeometry>
        </mxCell>
        <mxCell id="wRRXuNqxhAB9UO7Eh207-9" value="" style="endArrow=classic;html=1;rounded=0;edgeStyle=orthogonalEdgeStyle;" parent="1" source="UStSliqd21bBvvFnvlSQ-14" target="UStSliqd21bBvvFnvlSQ-9" edge="1">
          <mxGeometry width="50" height="50" relative="1" as="geometry">
            <mxPoint x="1110" y="590" as="sourcePoint" />
            <mxPoint x="1170" y="250" as="targetPoint" />
            <Array as="points">
              <mxPoint x="1340" y="620" />
              <mxPoint x="1000" y="620" />
              <mxPoint x="1000" y="240" />
            </Array>
          </mxGeometry>
        </mxCell>
        <mxCell id="wRRXuNqxhAB9UO7Eh207-12" value="ERROR" style="rounded=1;whiteSpace=wrap;html=1;" parent="1" vertex="1">
          <mxGeometry x="1480" y="370" width="120" height="60" as="geometry" />
        </mxCell>
        <mxCell id="wRRXuNqxhAB9UO7Eh207-13" value="" style="rounded=0;whiteSpace=wrap;html=1;fillColor=none;dashed=1;" parent="1" vertex="1">
          <mxGeometry x="1020" y="280" width="400" height="220" as="geometry" />
        </mxCell>
        <mxCell id="wRRXuNqxhAB9UO7Eh207-14" value="" style="endArrow=classic;html=1;rounded=0;edgeStyle=orthogonalEdgeStyle;" parent="1" source="wRRXuNqxhAB9UO7Eh207-13" target="wRRXuNqxhAB9UO7Eh207-12" edge="1">
          <mxGeometry width="50" height="50" relative="1" as="geometry">
            <mxPoint x="1350" y="390" as="sourcePoint" />
            <mxPoint x="1350" y="430" as="targetPoint" />
          </mxGeometry>
        </mxCell>
        <mxCell id="wRRXuNqxhAB9UO7Eh207-15" value="" style="endArrow=classic;html=1;rounded=0;edgeStyle=orthogonalEdgeStyle;" parent="1" source="wRRXuNqxhAB9UO7Eh207-12" target="UStSliqd21bBvvFnvlSQ-9" edge="1">
          <mxGeometry width="50" height="50" relative="1" as="geometry">
            <mxPoint x="1430" y="410" as="sourcePoint" />
            <mxPoint x="1490" y="410" as="targetPoint" />
            <Array as="points">
              <mxPoint x="1540" y="240" />
            </Array>
          </mxGeometry>
        </mxCell>
        <mxCell id="s28mq5PmzjLx9Zvg_zJa-1" value="BOTH_DOORS&lt;div&gt;_CLOSED&lt;/div&gt;" style="rounded=1;whiteSpace=wrap;html=1;" parent="1" vertex="1">
          <mxGeometry x="80" y="300" width="120" height="60" as="geometry" />
        </mxCell>
        <mxCell id="2emdxWsW9siE9jy-AEzy-1" value="" style="edgeStyle=orthogonalEdgeStyle;rounded=0;orthogonalLoop=1;jettySize=auto;html=1;" edge="1" parent="1" source="s28mq5PmzjLx9Zvg_zJa-2" target="s28mq5PmzjLx9Zvg_zJa-13">
          <mxGeometry relative="1" as="geometry" />
        </mxCell>
        <mxCell id="s28mq5PmzjLx9Zvg_zJa-2" value="OUTER_DOOR&lt;div&gt;_OPENED&lt;/div&gt;" style="rounded=1;whiteSpace=wrap;html=1;" parent="1" vertex="1">
          <mxGeometry x="320" y="300" width="120" height="60" as="geometry" />
        </mxCell>
        <mxCell id="s28mq5PmzjLx9Zvg_zJa-10" value="" style="edgeStyle=orthogonalEdgeStyle;rounded=0;orthogonalLoop=1;jettySize=auto;html=1;" parent="1" source="s28mq5PmzjLx9Zvg_zJa-3" target="s28mq5PmzjLx9Zvg_zJa-8" edge="1">
          <mxGeometry relative="1" as="geometry" />
        </mxCell>
        <mxCell id="s28mq5PmzjLx9Zvg_zJa-3" value="CLEANROOM&lt;div&gt;_&lt;span style=&quot;background-color: initial;&quot;&gt;DOOR&lt;/span&gt;&lt;span style=&quot;background-color: initial;&quot;&gt;_OPENED&lt;/span&gt;&lt;/div&gt;" style="rounded=1;whiteSpace=wrap;html=1;" parent="1" vertex="1">
          <mxGeometry x="480" y="300" width="120" height="60" as="geometry" />
        </mxCell>
        <mxCell id="s28mq5PmzjLx9Zvg_zJa-4" value="" style="endArrow=classic;html=1;rounded=0;" parent="1" source="UStSliqd21bBvvFnvlSQ-1" target="s28mq5PmzjLx9Zvg_zJa-1" edge="1">
          <mxGeometry width="50" height="50" relative="1" as="geometry">
            <mxPoint x="700" y="450" as="sourcePoint" />
            <mxPoint x="750" y="400" as="targetPoint" />
          </mxGeometry>
        </mxCell>
        <mxCell id="s28mq5PmzjLx9Zvg_zJa-5" value="" style="endArrow=classic;html=1;rounded=0;" parent="1" source="UStSliqd21bBvvFnvlSQ-1" target="s28mq5PmzjLx9Zvg_zJa-2" edge="1">
          <mxGeometry width="50" height="50" relative="1" as="geometry">
            <mxPoint x="350" y="270" as="sourcePoint" />
            <mxPoint x="270" y="330" as="targetPoint" />
          </mxGeometry>
        </mxCell>
        <mxCell id="s28mq5PmzjLx9Zvg_zJa-6" value="" style="endArrow=classic;html=1;rounded=0;" parent="1" source="UStSliqd21bBvvFnvlSQ-1" target="s28mq5PmzjLx9Zvg_zJa-3" edge="1">
          <mxGeometry width="50" height="50" relative="1" as="geometry">
            <mxPoint x="390" y="270" as="sourcePoint" />
            <mxPoint x="390" y="330" as="targetPoint" />
          </mxGeometry>
        </mxCell>
        <mxCell id="s28mq5PmzjLx9Zvg_zJa-7" value="&lt;div&gt;BOTH_&lt;span style=&quot;background-color: initial;&quot;&gt;DOORS&lt;/span&gt;&lt;/div&gt;&lt;div&gt;&lt;span style=&quot;background-color: initial;&quot;&gt;_OPENED&lt;/span&gt;&lt;/div&gt;" style="rounded=1;whiteSpace=wrap;html=1;" parent="1" vertex="1">
          <mxGeometry x="640" y="300" width="120" height="60" as="geometry" />
        </mxCell>
        <mxCell id="s28mq5PmzjLx9Zvg_zJa-11" value="" style="edgeStyle=orthogonalEdgeStyle;rounded=0;orthogonalLoop=1;jettySize=auto;html=1;" parent="1" source="s28mq5PmzjLx9Zvg_zJa-8" target="s28mq5PmzjLx9Zvg_zJa-9" edge="1">
          <mxGeometry relative="1" as="geometry" />
        </mxCell>
        <mxCell id="s28mq5PmzjLx9Zvg_zJa-8" value="&lt;div&gt;CLEANROOM&lt;/div&gt;&lt;div&gt;_DOOR_CLOSED&lt;/div&gt;" style="rounded=1;whiteSpace=wrap;html=1;" parent="1" vertex="1">
          <mxGeometry x="480" y="400" width="120" height="60" as="geometry" />
        </mxCell>
        <mxCell id="2emdxWsW9siE9jy-AEzy-9" value="" style="edgeStyle=orthogonalEdgeStyle;rounded=0;orthogonalLoop=1;jettySize=auto;html=1;" edge="1" parent="1" source="s28mq5PmzjLx9Zvg_zJa-9" target="2emdxWsW9siE9jy-AEzy-8">
          <mxGeometry relative="1" as="geometry" />
        </mxCell>
        <mxCell id="s28mq5PmzjLx9Zvg_zJa-9" value="&lt;div&gt;CLEANROOM&lt;/div&gt;&lt;div&gt;_DOOR_LOCKED&lt;/div&gt;" style="rounded=1;whiteSpace=wrap;html=1;" parent="1" vertex="1">
          <mxGeometry x="480" y="600" width="120" height="60" as="geometry" />
        </mxCell>
        <mxCell id="2emdxWsW9siE9jy-AEzy-2" value="" style="edgeStyle=orthogonalEdgeStyle;rounded=0;orthogonalLoop=1;jettySize=auto;html=1;" edge="1" parent="1" source="s28mq5PmzjLx9Zvg_zJa-13" target="s28mq5PmzjLx9Zvg_zJa-14">
          <mxGeometry relative="1" as="geometry" />
        </mxCell>
        <mxCell id="s28mq5PmzjLx9Zvg_zJa-13" value="CLOSE_OUTER&lt;div&gt;_DOOR&lt;/div&gt;" style="rounded=1;whiteSpace=wrap;html=1;" parent="1" vertex="1">
          <mxGeometry x="320" y="400" width="120" height="60" as="geometry" />
        </mxCell>
        <mxCell id="2emdxWsW9siE9jy-AEzy-4" value="" style="edgeStyle=orthogonalEdgeStyle;rounded=0;orthogonalLoop=1;jettySize=auto;html=1;" edge="1" parent="1" source="s28mq5PmzjLx9Zvg_zJa-14" target="2emdxWsW9siE9jy-AEzy-3">
          <mxGeometry relative="1" as="geometry" />
        </mxCell>
        <mxCell id="s28mq5PmzjLx9Zvg_zJa-14" value="OUTER_DOOR&lt;div&gt;_CLOSED&lt;/div&gt;" style="rounded=1;whiteSpace=wrap;html=1;" parent="1" vertex="1">
          <mxGeometry x="320" y="500" width="120" height="60" as="geometry" />
        </mxCell>
        <mxCell id="2emdxWsW9siE9jy-AEzy-3" value="OPEN_OUTER&lt;div&gt;_DOOR&lt;/div&gt;" style="rounded=1;whiteSpace=wrap;html=1;" vertex="1" parent="1">
          <mxGeometry x="320" y="600" width="120" height="60" as="geometry" />
        </mxCell>
        <mxCell id="2emdxWsW9siE9jy-AEzy-7" value="" style="endArrow=classic;html=1;rounded=0;edgeStyle=orthogonalEdgeStyle;" edge="1" parent="1" source="2emdxWsW9siE9jy-AEzy-3" target="s28mq5PmzjLx9Zvg_zJa-2">
          <mxGeometry width="50" height="50" relative="1" as="geometry">
            <mxPoint x="600" y="560" as="sourcePoint" />
            <mxPoint x="650" y="510" as="targetPoint" />
            <Array as="points">
              <mxPoint x="460" y="630" />
              <mxPoint x="460" y="330" />
            </Array>
          </mxGeometry>
        </mxCell>
        <mxCell id="2emdxWsW9siE9jy-AEzy-8" value="&lt;div&gt;CLEANROOM&lt;/div&gt;&lt;div&gt;_DOOR_RELEASED&lt;/div&gt;" style="rounded=1;whiteSpace=wrap;html=1;" vertex="1" parent="1">
          <mxGeometry x="480" y="700" width="120" height="60" as="geometry" />
        </mxCell>
        <mxCell id="2emdxWsW9siE9jy-AEzy-10" value="" style="endArrow=classic;html=1;rounded=0;edgeStyle=orthogonalEdgeStyle;" edge="1" parent="1" source="2emdxWsW9siE9jy-AEzy-8" target="s28mq5PmzjLx9Zvg_zJa-3">
          <mxGeometry width="50" height="50" relative="1" as="geometry">
            <mxPoint x="330" y="640" as="sourcePoint" />
            <mxPoint x="330" y="340" as="targetPoint" />
            <Array as="points">
              <mxPoint x="620" y="730" />
              <mxPoint x="620" y="340" />
            </Array>
          </mxGeometry>
        </mxCell>
        <mxCell id="2emdxWsW9siE9jy-AEzy-11" value="" style="endArrow=classic;html=1;rounded=0;edgeStyle=orthogonalEdgeStyle;" edge="1" parent="1" source="s28mq5PmzjLx9Zvg_zJa-9" target="s28mq5PmzjLx9Zvg_zJa-1">
          <mxGeometry width="50" height="50" relative="1" as="geometry">
            <mxPoint x="610" y="640" as="sourcePoint" />
            <mxPoint x="610" y="350" as="targetPoint" />
            <Array as="points">
              <mxPoint x="540" y="680" />
              <mxPoint x="40" y="680" />
              <mxPoint x="40" y="280" />
              <mxPoint x="140" y="280" />
            </Array>
          </mxGeometry>
        </mxCell>
        <mxCell id="2emdxWsW9siE9jy-AEzy-12" value="" style="endArrow=classic;html=1;rounded=0;edgeStyle=orthogonalEdgeStyle;" edge="1" parent="1" source="s28mq5PmzjLx9Zvg_zJa-14" target="s28mq5PmzjLx9Zvg_zJa-1">
          <mxGeometry width="50" height="50" relative="1" as="geometry">
            <mxPoint x="550" y="670" as="sourcePoint" />
            <mxPoint x="190" y="230" as="targetPoint" />
            <Array as="points">
              <mxPoint x="40" y="530" />
              <mxPoint x="40" y="280" />
              <mxPoint x="140" y="280" />
            </Array>
          </mxGeometry>
        </mxCell>
        <mxCell id="2emdxWsW9siE9jy-AEzy-14" value="" style="edgeStyle=orthogonalEdgeStyle;rounded=0;orthogonalLoop=1;jettySize=auto;html=1;" edge="1" parent="1" source="2emdxWsW9siE9jy-AEzy-13" target="UStSliqd21bBvvFnvlSQ-1">
          <mxGeometry relative="1" as="geometry" />
        </mxCell>
        <mxCell id="2emdxWsW9siE9jy-AEzy-13" value="IDLE" style="rounded=1;whiteSpace=wrap;html=1;" vertex="1" parent="1">
          <mxGeometry x="320" y="110" width="120" height="60" as="geometry" />
        </mxCell>
        <mxCell id="2emdxWsW9siE9jy-AEzy-15" value="ERROR" style="rounded=1;whiteSpace=wrap;html=1;" vertex="1" parent="1">
          <mxGeometry x="800" y="370" width="120" height="60" as="geometry" />
        </mxCell>
        <mxCell id="2emdxWsW9siE9jy-AEzy-16" value="" style="endArrow=classic;html=1;rounded=0;edgeStyle=orthogonalEdgeStyle;" edge="1" parent="1" source="2emdxWsW9siE9jy-AEzy-15" target="2emdxWsW9siE9jy-AEzy-13">
          <mxGeometry width="50" height="50" relative="1" as="geometry">
            <mxPoint x="940" y="340" as="sourcePoint" />
            <mxPoint x="680" y="210" as="targetPoint" />
            <Array as="points">
              <mxPoint x="940" y="400" />
              <mxPoint x="940" y="140" />
            </Array>
          </mxGeometry>
        </mxCell>
        <mxCell id="2emdxWsW9siE9jy-AEzy-17" value="" style="endArrow=classic;html=1;rounded=0;edgeStyle=orthogonalEdgeStyle;" edge="1" parent="1" source="2emdxWsW9siE9jy-AEzy-18" target="2emdxWsW9siE9jy-AEzy-15">
          <mxGeometry width="50" height="50" relative="1" as="geometry">
            <mxPoint x="770" y="520" as="sourcePoint" />
            <mxPoint x="830" y="520" as="targetPoint" />
            <Array as="points">
              <mxPoint x="820" y="410" />
              <mxPoint x="820" y="410" />
            </Array>
          </mxGeometry>
        </mxCell>
        <mxCell id="2emdxWsW9siE9jy-AEzy-18" value="" style="rounded=0;whiteSpace=wrap;html=1;fillColor=none;dashed=1;" vertex="1" parent="1">
          <mxGeometry x="660" y="370" width="120" height="60" as="geometry" />
        </mxCell>
      </root>
    </mxGraphModel>
  </diagram>
</mxfile>
